<?xml version="1.0" encoding="UTF-8" standalone="no"?>
<!DOCTYPE svg PUBLIC "-//W3C//DTD SVG 1.1//EN" "http://www.w3.org/Graphics/SVG/1.1/DTD/svg11.dtd">
<svg xmlns="http://www.w3.org/2000/svg" xmlns:xlink="http://www.w3.org/1999/xlink" version="1.1" width="595.28pt" height="568pt" viewBox="0 0 595.28 568">
<g enable-background="new">
<g id="Layer-1" data-name="Layer 1">
<clipPath id="cp0">
<path transform="matrix(1,0,0,-1,0,568)" d="M 0 568 L 595.28 568 L 595.28 0 L 0 0 Z "/>
</clipPath>
<g clip-path="url(#cp0)">
<path transform="matrix(1,0,0,-1,325.6982,117.79739)" d="M 0 0 C -16.438 2.077 -31.984 3.23 -46.591 1.923 C -76.647 -.764 -102.297 -11.078 -124.063 -25.189 C -158.143 -47.287 -182.647 -79.672 -194.295 -116.541 C -201.657 -139.848 -204.511 -165.458 -201.89 -189.764 C -192.543 -276.427 -99.133 -371.411 16.9 -335.032 C 27.486 -331.714 38.647 -327.978 49.532 -321.999 C 55.88 -318.512 62.108 -314.615 68.439 -310.083 C 71.992 -307.542 75.579 -304.502 79.238 -301.94 L 10.843 -264.127 L -39.688 -286.522 L -68.575 -281.73 L 11.002 -248.94 L 88.477 -293.578 C 102.17 -280.423 114.517 -265.928 123.717 -246.034 C 85.862 -226.706 48.842 -205.516 10.99 -186.188 L -119.522 -245.355 L -128.854 -232.705 L 10.854 -171.37 L 127.515 -236.169 C 134.816 -221.674 140.272 -200.129 141.36 -177.717 L 10.95 -103.931 L -145.25 -176.708 C -143.348 -103.1 -79.584 -41.546 -.016 -53.722 Z " fill="#231f20" fill-rule="evenodd"/>
<path transform="matrix(1,0,0,-1,336.5332,120.06299)" d="M 0 0 C 43.84 -9.598 79.518 -38.624 102.521 -73.176 C 121.05 -101.004 131.002 -132.833 130.649 -161.695 L .031 -87.56 Z " fill="#4bb748" fill-rule="evenodd"/>
<path transform="matrix(1,0,0,-1,59.2852,388.44343)" d="M 0 0 C 1.354 3.691 3.616 5.299 5.938 5.514 C 7.558 5.665 9.172 5.119 10.507 4.123 C 11.81 3.151 12.862 1.734 13.395 .111 C 14.279 -2.577 13.761 -5.805 10.65 -8.492 L 10.572 -8.552 C 7.312 -10.901 4.562 -12.087 1.791 -12.496 C -.934 -12.898 -3.615 -12.542 -6.789 -11.798 C -10.006 -11.822 -11.742 -12.782 -12.427 -14.008 C -12.815 -14.7 -12.867 -15.496 -12.662 -16.244 C -12.45 -17.025 -11.965 -17.743 -11.297 -18.241 C -10.248 -19.021 -8.71 -19.239 -7.014 -18.261 L -5.92 -20.159 C -8.494 -21.642 -10.904 -21.253 -12.598 -19.993 C -13.664 -19.2 -14.436 -18.057 -14.773 -16.816 C -15.121 -15.546 -15.021 -14.165 -14.333 -12.938 C -13.288 -11.072 -10.896 -9.609 -6.67 -9.609 L -6.422 -9.64 C -3.44 -10.346 -.96 -10.694 1.475 -10.334 C 3.888 -9.978 6.324 -8.92 9.251 -6.815 C 11.547 -4.818 11.949 -2.483 11.317 -.562 C 10.928 .618 10.158 1.655 9.2 2.371 C 8.275 3.062 7.19 3.441 6.134 3.345 C 4.605 3.202 3.066 2.013 2.051 -.752 Z M -23.664 108.516 C -4.129 108.287 15.406 108.06 34.941 107.832 C 35.235 98.266 35.528 88.697 35.822 79.13 C 40.249 79.28 44.678 79.432 49.105 79.585 C 56.161 79.571 59.569 73.783 59.332 62.218 C 57.515 62.139 55.701 62.057 53.884 61.975 C 53.222 66.837 53.138 72.044 43.173 71.322 C 31.629 70.218 20.085 69.112 8.541 68.01 C 8.416 71.062 8.291 74.116 8.167 77.173 C 14.609 77.534 21.052 77.896 27.494 78.258 C 27.664 83.125 27.831 87.993 27.999 92.859 C 28.137 97.245 24.93 98.818 18.382 98.945 C 14.495 98.54 10.607 98.816 6.72 98.409 C 6.888 93.521 7.058 88.634 7.226 83.746 C 2.139 83.581 -2.949 83.416 -8.037 83.251 C -20.435 86.197 -17.208 96.901 -23.664 108.516 M -12.671 99.795 L .321 99.795 L .776 92.501 C -9.027 89.955 -12.598 94.438 -12.671 99.795 M -18.186 147.927 C -16.412 148.821 -14.757 148.805 -13.423 148.195 C -12.57 147.806 -11.863 147.184 -11.352 146.407 C -10.856 145.653 -10.539 144.742 -10.447 143.758 C -10.269 141.871 -10.929 139.706 -12.767 137.868 L -12.872 137.763 L -13.014 137.685 C -14.712 136.754 -16.341 136.285 -17.855 136.205 C -19.646 136.109 -21.272 136.553 -22.669 137.41 C -24.043 138.254 -25.179 139.499 -26.017 141.025 C -26.924 142.682 -27.48 144.671 -27.594 146.829 C -27.749 149.718 -28.897 151.545 -30.264 152.273 L -30.265 152.27 C -30.739 152.522 -31.242 152.636 -31.729 152.607 C -32.208 152.58 -32.678 152.413 -33.096 152.104 C -34.272 151.237 -35.087 149.298 -34.869 146.187 C -34.403 145.112 -33.881 144.217 -33.163 143.931 C -32.39 143.625 -31.203 143.935 -29.29 145.319 L -28.008 143.549 C -30.635 141.647 -32.515 141.321 -33.966 141.898 C -35.594 142.542 -36.401 144.206 -37.034 145.706 L -37.045 145.86 C -37.372 149.915 -36.142 152.572 -34.387 153.865 C -33.614 154.436 -32.746 154.744 -31.857 154.796 L -31.853 154.796 C -30.974 154.848 -30.078 154.649 -29.239 154.201 L -29.239 154.197 C -27.259 153.145 -25.605 150.686 -25.406 146.941 C -25.309 145.106 -24.849 143.441 -24.102 142.077 C -23.448 140.884 -22.571 139.917 -21.524 139.274 C -20.501 138.646 -19.299 138.321 -17.965 138.393 C -16.807 138.455 -15.544 138.812 -14.209 139.521 C -12.955 140.828 -12.498 142.296 -12.617 143.553 C -12.674 144.166 -12.872 144.732 -13.183 145.202 C -13.477 145.649 -13.869 146.003 -14.329 146.212 C -15.088 146.559 -16.08 146.545 -17.204 145.978 Z M -38.703 131.592 L 36.688 123.912 L 36.815 115.949 L -38.324 122.875 Z M -11.154 175 C -9.01 175 -7.261 173.251 -7.261 171.105 C -7.261 168.961 -9.01 167.212 -11.154 167.212 C -13.3 167.212 -15.048 168.961 -15.048 171.105 C -15.048 173.251 -13.3 175 -11.154 175 M -21.267 186.364 C -12.231 183.019 -3.429 180.373 5.29 177.98 C 10.804 176.454 13.679 173.607 14.75 169.858 C 17.04 173.458 20.447 172.874 24.014 171.692 C 31.054 169.319 38.092 166.946 45.132 164.572 C 42.792 154.207 40.33 143.963 37.987 133.597 C 24.8 136.899 12.545 138.863 .628 140.257 C 1.221 143.336 1.815 146.413 2.408 149.493 C 9.281 147.85 15.989 145.761 23.238 144.866 C 26.626 144.562 30.519 143.191 31.876 147.627 C 33.627 152.981 36.985 159.186 32.302 161.155 C 20.976 164.127 15.742 163.107 13.795 159.759 C 12.256 160.374 9.408 161.105 7.869 161.718 C 7.789 166.687 5.151 170.151 3.183 170.319 C .304 170.568 -2.23 165.136 -2.213 158.249 C -8.369 164.181 -20.276 157.603 -21.804 170.986 C -21.625 176.112 -21.445 181.238 -21.267 186.364 M 38.256 236.259 C 48.174 228.26 57.722 220.584 69.407 213.644 C 63.65 205.725 58.283 197.547 55.657 187.54 C 42.725 193.535 29.794 199.528 16.862 205.524 C 11.112 208.092 11.799 200.412 13.961 198.226 L 51.555 181.302 L 49.731 176.16 C 37.07 181.608 24.409 187.057 11.749 192.503 C 7.476 194.092 2.143 197.026 2.114 201.822 C .558 208.125 5.886 213.389 3.289 222.293 L 50.492 199.726 C 52.677 203.728 55.099 207.883 57.632 211.539 C 48.672 216.602 40.897 222.058 33.006 227.475 Z M 25.698 263.365 L 36.27 262.967 L 36.268 262.926 C 38.065 263.622 40.1 264.157 42.324 264.539 C 46.18 265.2 50.611 265.4 55.356 265.159 L 55.437 265.155 L 55.537 265.134 C 58.701 264.448 60.722 262.057 61.432 259.308 C 61.737 258.128 61.799 256.881 61.605 255.677 C 61.41 254.458 60.953 253.28 60.221 252.254 C 58.589 249.964 55.634 248.445 51.235 248.948 L 51.483 251.118 C 54.965 250.72 57.238 251.83 58.443 253.519 C 58.975 254.265 59.308 255.126 59.453 256.02 C 59.598 256.928 59.551 257.87 59.32 258.761 C 58.81 260.736 57.388 262.455 55.172 262.976 C 50.594 263.203 46.351 263.011 42.692 262.384 C 38.857 261.726 35.67 260.592 33.429 258.961 C 31.32 257.424 30.064 255.428 29.939 252.956 C 29.906 252.292 29.949 251.597 30.072 250.875 L 30.102 250.702 L 30.077 250.533 C 29.854 249.047 30.598 247.963 31.639 247.382 C 32.319 247.002 33.127 246.825 33.894 246.875 C 34.598 246.921 35.247 247.162 35.681 247.617 C 36.356 248.323 36.583 249.622 35.859 251.639 L 37.919 252.373 C 38.97 249.443 38.47 247.378 37.263 246.111 C 36.419 245.227 35.252 244.765 34.03 244.687 C 32.869 244.611 31.634 244.888 30.578 245.475 C 28.843 246.443 27.595 248.229 27.891 250.675 C 27.758 251.51 27.713 252.305 27.75 253.059 C 27.912 256.254 29.489 258.8 32.138 260.729 C 32.227 260.795 32.316 260.859 32.405 260.923 L 26.177 261.158 L 25.528 261.044 C 15.567 259.304 10.115 255.851 7.941 252.337 C 7.167 251.086 6.827 249.831 6.86 248.664 C 6.894 247.526 7.287 246.457 7.98 245.55 C 9.436 243.643 12.203 242.399 15.792 242.523 C 16.746 242.554 17.845 244.264 18.415 246.069 C 18.694 246.955 18.824 247.84 18.726 248.552 C 18.655 249.069 18.461 249.471 18.105 249.634 C 17.369 249.972 15.978 249.712 13.664 248.415 L 12.594 250.32 C 15.608 252.009 17.677 252.23 19.012 251.617 C 20.14 251.1 20.719 250.084 20.889 248.842 C 21.033 247.796 20.868 246.577 20.5 245.411 C 19.689 242.841 17.789 240.4 15.861 240.335 C 11.524 240.185 8.108 241.783 6.245 244.225 C 5.272 245.501 4.72 247 4.673 248.604 C 4.626 250.175 5.071 251.842 6.085 253.483 C 8.401 257.227 13.793 260.869 23.287 262.84 C 20.388 266.46 19.191 269.791 20.038 272.769 C 20.99 276.116 24.481 278.835 30.993 280.807 L 31.128 280.847 L 31.258 280.853 C 35.731 281.071 39.068 278.855 40.664 276.22 C 41.369 275.056 41.742 273.797 41.736 272.609 C 41.729 271.344 41.301 270.159 40.401 269.227 C 38.913 267.686 36.146 266.912 31.892 267.837 L 32.354 269.973 C 35.757 269.234 37.83 269.705 38.829 270.739 C 39.313 271.24 39.543 271.9 39.547 272.617 C 39.551 273.408 39.288 274.272 38.792 275.092 C 37.573 277.104 34.992 278.797 31.489 278.67 C 25.85 276.942 22.872 274.753 22.141 272.179 C 21.445 269.73 22.75 266.763 25.698 263.365 M 24.61 262.312 L 36.231 261.874 Z M 86.111 327.853 C 84.327 324.624 82.804 321.935 81.279 319.248 C 79.833 316.696 78.386 314.141 76.506 310.741 C 75.628 308.406 75.797 306.2 76.687 304.353 C 77.411 302.845 78.615 301.56 80.123 300.619 C 81.651 299.666 83.492 299.069 85.468 298.954 C 88.602 298.769 92.065 299.803 95.15 302.551 C 97.779 307.161 96.37 310.282 93.723 311.83 C 92.487 312.552 90.982 312.962 89.474 313.043 C 87.974 313.125 86.496 312.884 85.304 312.309 C 83.432 311.406 82.275 309.574 82.982 306.742 C 83.334 306.893 83.729 306.974 84.149 306.974 C 85.587 306.974 86.762 305.98 86.762 304.76 C 86.762 303.541 85.587 302.544 84.149 302.544 C 83.114 302.544 82.217 303.062 81.794 303.804 L 81.759 303.788 C 79.149 309.196 81.016 312.664 84.355 314.274 C 85.893 315.016 87.743 315.331 89.584 315.231 C 91.417 315.132 93.27 314.619 94.826 313.709 C 98.485 311.571 100.493 307.364 96.945 301.299 L 96.859 301.149 L 96.74 301.042 C 93.14 297.774 89.051 296.547 85.338 296.766 C 83 296.903 80.805 297.619 78.969 298.763 C 77.113 299.923 75.621 301.521 74.712 303.412 C 73.567 305.794 73.349 308.62 74.486 311.585 L 74.513 311.651 L 74.55 311.72 C 74.573 311.762 74.596 311.804 74.619 311.844 C 70.918 314.702 67.737 316.011 65.517 315.961 C 63.305 315.911 61.466 314.841 59.661 313.684 C 58.956 312.858 58.539 311.933 58.356 310.992 C 58.124 309.795 58.251 308.562 58.62 307.464 C 58.984 306.383 59.582 305.44 60.296 304.802 C 60.731 304.412 61.197 304.149 61.656 304.06 C 62.241 303.946 63.092 304.126 63.895 304.563 C 64.344 304.808 64.771 305.14 65.111 305.55 C 65.433 305.934 65.669 306.381 65.768 306.885 C 65.912 307.624 65.777 308.522 65.207 309.568 L 67.121 310.61 C 67.962 309.067 68.147 307.676 67.914 306.475 C 67.737 305.571 67.333 304.792 66.796 304.147 C 66.281 303.529 65.63 303.025 64.937 302.647 C 63.697 301.972 62.288 301.713 61.246 301.914 C 60.374 302.085 59.552 302.528 58.834 303.171 C 57.853 304.046 57.04 305.321 56.552 306.773 C 56.069 308.207 55.903 309.825 56.211 311.404 C 56.475 312.76 57.078 314.083 58.112 315.241 L 58.201 315.341 L 58.339 315.43 C 60.459 317.249 62.624 318.437 65.473 318.149 C 68.101 318.208 71.646 316.845 75.693 313.779 C 77.006 316.13 78.194 318.227 79.382 320.323 C 80.839 322.894 82.296 325.465 84.196 328.903 Z M 52.25 238.444 C 58.643 239.474 58.985 253.115 71.298 247.581 C 73.486 245.48 85.97 235.4 85.97 233.297 C 82.259 228.76 79.064 224.222 76.383 219.685 L 68.35 226.028 L 74.288 233.791 L 68.469 237.956 C 64.993 239.427 61.989 236.887 59.2 232.523 Z M 109.108 283.385 L 101.692 277.031 C 100.652 276.142 100.649 274.622 101.457 273.517 L 105.779 267.599 C 106.587 266.493 108.253 266.473 109.293 267.364 L 116.71 273.715 C 117.75 274.608 117.751 276.124 116.944 277.23 L 112.622 283.15 C 111.814 284.256 110.148 284.274 109.108 283.385 M 145.088 320.499 C 145.135 325.322 149.481 324.845 150.102 327.661 L 154.687 315.771 C 152.729 315.006 151.201 313.526 149.242 312.763 C 147.762 313.622 146.426 317.634 145.088 320.499 M 155.571 341.532 C 149.769 329.887 134.199 330.684 139.953 316.554 L 144.289 304.474 C 145.08 302.268 144.628 301.563 146.761 302.796 C 150.378 304.886 153.997 306.977 157.612 309.067 C 158.999 306.194 160.385 303.322 161.772 300.45 C 162.433 299.021 161.758 297.788 159.747 296.742 C 153.76 294.027 147.771 291.313 141.785 288.598 L 131.367 307.73 L 124.547 303.101 C 126.856 298.646 129.163 294.187 131.472 289.732 C 133.49 286.506 132.536 285.052 131.484 283.36 C 129.689 281.666 127.465 280.401 125.669 278.706 C 121.347 285.298 117.741 291.029 113.417 297.619 C 109.3 294.548 105.185 291.477 101.069 288.405 C 97.986 285.205 97.529 282.002 98.267 278.799 C 96.674 281.24 94.651 283.108 93.058 285.549 L 85.963 279.406 L 99.774 260.153 C 97.3 257.667 94.337 254.668 92.244 251.799 C 76.974 268.32 61.703 284.842 46.432 301.367 C 43.927 298.994 41.423 296.62 38.917 294.25 C 56.283 275.656 73.649 257.063 91.015 238.469 C 115.807 263.854 143.083 281.601 172.842 291.701 L 157.923 327.212 C 156.375 331.748 155.589 336.999 155.571 341.532 M -33.343 80.711 C -27.752 75.927 -28.552 71.447 -29.292 67.29 C -29.772 64.606 -30.222 62.078 -28.407 59.916 C -27.201 58.611 -25.876 57.646 -24.43 56.98 C -23.001 56.319 -21.434 55.943 -19.731 55.809 C -17.589 55.965 -15.627 56.743 -14.041 57.913 C -12.777 58.848 -11.75 60.029 -11.068 61.342 C -10.4 62.623 -10.064 64.031 -10.158 65.451 L -10.158 65.455 C -10.242 66.723 -10.672 68.006 -11.518 69.217 C -13.279 70.187 -14.912 70.566 -16.255 70.458 C -16.926 70.405 -17.512 70.234 -17.988 69.955 C -18.441 69.69 -18.811 69.322 -19.073 68.867 C -19.422 68.255 -19.584 67.463 -19.509 66.518 L -21.697 66.347 C -21.808 67.737 -21.539 68.957 -20.969 69.951 C -20.517 70.743 -19.874 71.383 -19.082 71.845 C -18.313 72.295 -17.413 72.569 -16.425 72.648 C -14.626 72.79 -12.481 72.291 -10.233 71.002 L -10.034 70.891 L -9.895 70.699 C -8.691 69.068 -8.085 67.324 -7.97 65.595 L -7.97 65.591 C -7.849 63.769 -8.276 61.967 -9.127 60.334 C -9.962 58.729 -11.211 57.288 -12.75 56.152 C -14.681 54.729 -17.071 53.787 -19.672 53.614 L -19.753 53.608 L -19.822 53.614 C -21.717 53.758 -23.493 54.173 -25.147 54.907 C -26.566 54.09 -27.862 52.701 -28.751 51.084 C -29.283 50.113 -29.663 49.071 -29.824 48.031 C -29.981 47.023 -29.935 46.014 -29.627 45.07 C -29.2 43.766 -28.245 42.566 -26.595 41.661 L -26.544 41.632 C -25.252 40.828 -23.972 40.872 -23.038 41.387 C -22.657 41.598 -22.333 41.886 -22.091 42.225 C -21.854 42.557 -21.696 42.937 -21.641 43.34 C -21.513 44.264 -21.938 45.347 -23.196 46.312 L -21.872 48.047 C -19.896 46.533 -19.25 44.688 -19.479 43.04 C -19.583 42.282 -19.876 41.571 -20.313 40.959 C -20.744 40.354 -21.317 39.844 -21.987 39.474 C -23.546 38.61 -25.63 38.504 -27.67 39.76 C -29.839 40.957 -31.113 42.591 -31.704 44.396 C -32.122 45.674 -32.187 47.025 -31.979 48.364 C -31.776 49.672 -31.312 50.959 -30.665 52.134 C -29.732 53.833 -28.525 55.089 -27.106 55.967 C -28.142 56.64 -29.117 57.463 -30.028 58.452 L -30.059 58.486 C -32.558 61.441 -32.02 64.459 -31.447 67.666 C -30.811 71.236 -30.125 75.084 -34.762 79.052 Z M 10.387 39.521 C 14.805 39.521 18.73 37.349 21.153 34.019 L 36.827 39.994 C 35.364 44.408 34.604 48.824 33.512 53.24 L 3.2 46.781 L 1.84 56.503 L 39.598 61.521 C 44.223 36.889 52.637 18.261 61.712 .676 L -1.146 -37.362 L -6.199 -29.549 L 51.888 2.325 C 49.148 6.417 47.287 10.508 46.025 14.601 L 28.099 5.593 L 24.716 12.185 L 43.06 21.847 L 38.969 32.447 L 23.657 27.235 C 23.683 26.897 23.696 26.556 23.696 26.211 C 23.696 18.881 17.717 12.903 10.387 12.903 C 5.775 12.903 1.699 15.271 -.69 18.854 C -2.886 19.648 -4.242 19.328 -5.479 18.85 C -4.196 19.577 -3.215 20.906 -2.423 22.612 C -2.747 23.759 -2.921 24.964 -2.921 26.211 C -2.921 33.542 3.057 39.521 10.387 39.521 M 10.387 31.747 C 13.435 31.747 15.922 29.261 15.922 26.211 C 15.922 23.164 13.435 20.678 10.387 20.678 C 7.34 20.678 4.853 23.164 4.853 26.211 C 4.853 29.261 7.34 31.747 10.387 31.747 M 56.328 54.396 C 60.009 54.396 63.011 51.395 63.011 47.712 C 63.011 44.032 60.009 41.028 56.328 41.028 C 52.647 41.028 49.646 44.032 49.646 47.712 C 49.646 51.395 52.647 54.396 56.328 54.396 M 61.658 38.817 C 65.338 38.817 68.341 35.813 68.341 32.133 C 68.341 28.453 65.338 25.449 61.658 25.449 C 57.977 25.449 54.975 28.453 54.975 32.133 C 54.975 35.813 57.977 38.817 61.658 38.817 M 68.422 22.828 C 72.104 22.828 75.105 19.824 75.105 16.144 C 75.105 12.465 72.104 9.461 68.422 9.461 C 64.741 9.461 61.74 12.465 61.74 16.144 C 61.74 19.824 64.741 22.828 68.422 22.828 M 74.572 8.683 C 78.253 8.683 81.256 5.682 81.256 2.001 C 81.256 -1.681 78.253 -4.683 74.572 -4.683 C 70.892 -4.683 67.89 -1.681 67.89 2.001 C 67.89 5.682 70.892 8.683 74.572 8.683 M -15.815 10.77 C -12.134 10.77 -9.133 7.766 -9.133 4.085 C -9.133 .405 -12.134 -2.598 -15.815 -2.598 C -19.496 -2.598 -22.498 .405 -22.498 4.085 C -22.498 7.766 -19.496 10.77 -15.815 10.77 M -20.682 28.847 C -17.001 28.847 -13.999 25.844 -13.999 22.163 C -13.999 18.482 -17.001 15.48 -20.682 15.48 C -24.363 15.48 -27.365 18.482 -27.365 22.163 C -27.365 25.844 -24.363 28.847 -20.682 28.847 M -30.417 101.156 C -26.736 101.156 -23.733 98.154 -23.733 94.475 C -23.733 90.794 -26.736 87.791 -30.417 87.791 C -34.097 87.791 -37.1 90.794 -37.1 94.475 C -37.1 98.154 -34.097 101.156 -30.417 101.156 M -31.111 179.028 C -27.431 179.028 -24.428 176.028 -24.428 172.347 C -24.428 168.665 -27.431 165.665 -31.111 165.665 C -34.792 165.665 -37.795 168.665 -37.795 172.347 C -37.795 176.028 -34.792 179.028 -31.111 179.028 M -14.336 209.127 C -10.655 209.127 -7.652 206.125 -7.652 202.445 C -7.652 198.763 -10.655 195.761 -14.336 195.761 C -18.016 195.761 -21.019 198.763 -21.019 202.445 C -21.019 206.125 -18.016 209.127 -14.336 209.127 M -9.402 222.943 C -5.721 222.943 -2.719 219.939 -2.719 216.26 C -2.719 212.58 -5.721 209.576 -9.402 209.576 C -13.083 209.576 -16.085 212.58 -16.085 216.26 C -16.085 219.939 -13.083 222.943 -9.402 222.943 M 69.048 195.312 C 72.73 195.312 75.731 192.31 75.731 188.628 C 75.731 184.948 72.73 181.944 69.048 181.944 C 65.369 181.944 62.366 184.948 62.366 188.628 C 62.366 192.31 65.369 195.312 69.048 195.312 M 76.943 209.62 C 80.623 209.62 83.626 206.618 83.626 202.938 C 83.626 199.256 80.623 196.255 76.943 196.255 C 73.263 196.255 70.26 199.256 70.26 202.938 C 70.26 206.618 73.263 209.62 76.943 209.62 M 109.508 325.078 C 113.188 325.078 116.191 322.074 116.191 318.394 C 116.191 314.712 113.188 311.71 109.508 311.71 C 105.828 311.71 102.824 314.712 102.824 318.394 C 102.824 322.074 105.828 325.078 109.508 325.078 M 99.64 340.373 C 103.32 340.373 106.322 337.369 106.322 333.688 C 106.322 330.009 103.32 327.006 99.64 327.006 C 95.959 327.006 92.958 330.009 92.958 333.688 C 92.958 337.369 95.959 340.373 99.64 340.373 M 128.257 355.174 C 131.937 355.174 134.94 352.172 134.94 348.49 C 134.94 344.81 131.937 341.809 128.257 341.809 C 124.577 341.809 121.573 344.81 121.573 348.49 C 121.573 352.172 124.577 355.174 128.257 355.174 M 142.565 361.094 C 146.246 361.094 149.248 358.092 149.248 354.412 C 149.248 350.73 146.246 347.728 142.565 347.728 C 138.884 347.728 135.883 350.73 135.883 354.412 C 135.883 358.092 138.884 361.094 142.565 361.094 M 193.875 294.528 C 196.306 294.528 198.288 292.544 198.288 290.112 C 198.288 287.681 196.306 285.7 193.875 285.7 C 191.442 285.7 189.459 287.681 189.459 290.112 C 189.459 292.544 191.442 294.528 193.875 294.528 M 192.836 374.733 L 183.893 371.239 L 195.953 304.975 C 196.251 297.72 188.146 297.142 186.432 303.063 L 171.994 370.403 L 162.316 367.55 L 178.217 301.639 C 179.619 297.283 182.01 294.413 185.387 293.024 C 183.755 291.438 182.122 289.854 180.488 288.271 C 187.637 286.092 192.242 282.826 195.927 279.165 C 197.015 284.057 201.846 287.928 208.377 291.333 C 205.954 292.693 203.531 294.052 201.108 295.413 C 202.59 297.547 204.431 301.196 203.608 306.15 Z M 212.517 377.224 L 203.566 375.428 L 212.286 300.515 L 219.186 300.258 Z M 314.766 361.173 C 313.908 362.519 313.131 363.01 312.49 362.954 C 312.178 362.928 311.867 362.771 311.579 362.528 C 311.224 362.226 310.9 361.802 310.632 361.303 C 309.181 359.609 309.827 355.914 309.927 355.703 C 314.134 352.858 319.009 350.469 325.13 349.292 C 328.616 349.37 330.781 350.092 332.021 351.12 C 332.774 351.743 333.172 352.484 333.317 353.25 C 333.468 354.054 333.353 354.907 333.08 355.703 C 332.612 357.06 331.726 358.193 330.906 358.616 C 330.689 358.727 330.454 358.814 330.21 358.878 L 330.21 358.876 C 329.334 359.101 328.322 359.035 327.407 358.677 C 326.51 358.325 325.711 357.69 325.241 356.779 C 325.113 356.53 325.006 356.254 324.929 355.952 L 322.809 356.489 C 322.925 356.947 323.093 357.378 323.299 357.78 C 324.033 359.2 325.251 360.177 326.611 360.71 C 327.954 361.237 329.446 361.331 330.747 360.995 L 330.753 360.991 C 331.159 360.887 331.547 360.74 331.907 360.555 C 333.176 359.9 334.504 358.285 335.148 356.413 C 335.532 355.289 335.688 354.054 335.461 352.849 C 335.227 351.605 334.596 350.416 333.415 349.435 C 331.81 348.107 329.166 347.178 325.066 347.102 L 324.971 347.1 L 324.847 347.124 C 314.491 349.083 307.624 354.235 301.64 359.397 C 295.819 358.822 291.893 357.364 289.304 355.492 C 287.363 354.084 286.187 352.441 285.536 350.773 C 284.884 349.1 284.749 347.389 284.889 345.857 C 285.079 343.78 285.76 342.071 286.343 341.238 C 289.505 337.659 292.401 336.637 294.554 337.076 C 295.671 337.303 296.597 337.936 297.241 338.801 C 297.901 339.688 298.271 340.826 298.268 342.035 C 298.26 344.339 296.859 346.897 293.468 348.558 L 294.427 350.523 C 298.685 348.438 300.445 345.092 300.455 342.035 C 300.461 340.361 299.933 338.766 298.993 337.502 C 298.037 336.219 296.66 335.28 294.989 334.938 C 292.135 334.355 288.449 335.535 284.671 339.826 L 284.642 339.859 L 284.607 339.905 C 283.852 340.952 282.953 343.11 282.718 345.662 C 282.549 347.494 282.714 349.549 283.502 351.57 C 284.293 353.597 285.703 355.582 288.023 357.261 C 290.575 359.111 294.245 360.588 299.431 361.327 C 299.322 361.422 299.213 361.518 299.104 361.613 C 292.95 367.037 287.395 371.933 279.316 372.118 L 279.257 372.118 C 274.724 372.458 272.059 371.05 270.866 369.086 C 270.35 368.233 270.103 367.27 270.097 366.304 C 270.091 365.315 270.33 364.324 270.783 363.441 C 271.773 361.512 273.805 360.079 276.55 360.26 L 276.636 360.267 L 276.705 360.26 C 278.334 360.127 279.669 361.299 280.36 362.709 C 280.637 363.274 280.811 363.876 280.854 364.45 C 280.896 364.971 280.834 365.448 280.651 365.818 C 280.365 366.397 279.69 366.771 278.523 366.689 L 278.377 368.879 C 280.578 369.031 281.938 368.141 282.608 366.783 C 282.98 366.033 283.114 365.166 283.045 364.279 C 282.977 363.443 282.728 362.568 282.326 361.75 C 281.29 359.638 279.219 357.887 276.602 358.066 C 272.925 357.855 270.192 359.815 268.844 362.44 C 268.225 363.642 267.898 364.982 267.909 366.313 C 267.917 367.668 268.265 369.021 268.995 370.224 C 270.578 372.832 273.92 374.717 279.42 374.306 C 288.264 374.079 294.094 368.943 300.549 363.254 C 302.795 361.275 305.122 359.226 307.683 357.306 C 307.507 359.005 307.919 360.881 308.709 362.337 C 309.104 363.069 309.6 363.713 310.169 364.193 C 310.801 364.732 311.523 365.074 312.303 365.142 C 313.726 365.268 315.241 364.503 316.611 362.354 Z M 231.564 376.649 C 235.244 376.649 238.246 373.648 238.246 369.966 C 238.246 366.286 235.244 363.284 231.564 363.284 C 227.882 363.284 224.88 366.286 224.88 369.966 C 224.88 373.648 227.882 376.649 231.564 376.649 M 246.535 377.48 C 250.215 377.48 253.217 374.479 253.217 370.797 C 253.217 367.117 250.215 364.115 246.535 364.115 C 242.853 364.115 239.852 367.117 239.852 370.797 C 239.852 374.479 242.853 377.48 246.535 377.48 M 247.782 296.386 C 251.462 296.386 254.464 293.384 254.464 289.702 C 254.464 286.022 251.462 283.021 247.782 283.021 C 244.101 283.021 241.099 286.022 241.099 289.702 C 241.099 293.384 244.101 296.386 247.782 296.386 M 261.921 295.139 C 265.601 295.139 268.604 292.135 268.604 288.455 C 268.604 284.775 265.601 281.771 261.921 281.771 C 258.241 281.771 255.237 284.775 255.237 288.455 C 255.237 292.135 258.241 295.139 261.921 295.139 M 313.073 341.715 C 316.755 341.715 319.757 338.713 319.757 335.034 C 319.757 331.352 316.755 328.35 313.073 328.35 C 309.393 328.35 306.391 331.352 306.391 335.034 C 306.391 338.713 309.393 341.715 313.073 341.715 M 352.164 348.785 C 355.847 348.785 358.848 345.783 358.848 342.103 C 358.848 338.421 355.847 335.419 352.164 335.419 C 348.484 335.419 345.482 338.421 345.482 342.103 C 345.482 345.783 348.484 348.785 352.164 348.785 M 340.521 334.229 C 344.202 334.229 347.203 331.229 347.203 327.546 C 347.203 323.866 344.202 320.865 340.521 320.865 C 336.84 320.865 333.838 323.866 333.838 327.546 C 333.838 331.229 336.84 334.229 340.521 334.229 M 290.056 302.713 C 292.99 302.713 295.383 300.32 295.383 297.386 C 295.383 294.452 292.99 292.059 290.056 292.059 C 287.124 292.059 284.729 294.452 284.729 297.386 C 284.729 300.32 287.124 302.713 290.056 302.713 M 394.713 323.797 C 398.001 321.167 401.289 318.535 404.58 315.903 C 388.673 296.573 372.768 277.242 356.862 257.911 C 339.322 271.236 321.067 283.37 299.367 289.766 C 292.271 279.987 278.509 286.112 276.941 296.471 C 264.615 300.191 254.107 300.658 242.823 301.253 L 243.392 343.038 C 241.442 345.962 236.683 341.845 236.567 339.569 C 236.569 326.794 236.569 314.02 236.569 301.245 C 234.347 301.257 232.125 301.267 229.905 301.279 C 230.186 314.903 230.467 328.527 230.747 342.149 C 230.709 353.687 247.581 352.904 254.084 362.12 L 251.699 320.405 C 252.26 314.416 252.972 309.399 256.426 309.244 L 264.211 308.43 L 269.356 332.706 L 277.448 330.123 L 272.854 306.827 L 279.677 304.923 C 282.497 311.547 291.803 313.038 295.833 310.109 C 299.522 308.206 300.311 305.315 300.997 302.556 C 301.876 299.012 302.588 295.898 309.085 296.149 L 317.095 317.574 L 325.113 314.131 L 316.383 292.761 L 324.986 288.139 L 335.519 308.722 L 342.948 304.257 L 332.289 284.403 L 341.646 278.815 C 353.547 297.404 366.353 317.288 378.25 335.876 C 380.975 333.964 383.698 332.05 386.423 330.136 L 349.697 274.449 L 357.129 269.001 Z M 449.632 266.628 C 443.704 266.136 439.374 272.126 435.287 277.781 C 432.167 282.095 429.201 286.199 426.189 286.426 L 426.14 286.434 C 425.914 286.462 425.767 286.479 425.707 286.485 C 421.902 286.883 418.496 286.225 415.947 284.582 C 413.461 282.98 411.777 280.409 411.345 276.936 C 411.338 276.882 411.33 276.833 411.326 276.792 C 411.807 271.641 414.016 268.911 416.512 267.926 C 418.036 267.328 419.673 267.364 421.074 267.891 C 422.444 268.406 423.584 269.389 424.145 270.689 C 424.94 272.536 424.584 275.08 422.14 277.958 L 423.806 279.367 C 426.882 275.748 427.254 272.374 426.154 269.826 C 425.348 267.96 423.753 266.564 421.843 265.848 C 419.959 265.14 417.762 265.088 415.717 265.894 C 412.509 267.157 409.686 270.501 409.133 276.679 L 409.126 276.745 L 409.141 276.884 C 409.16 277.081 409.171 277.168 409.175 277.2 C 409.693 281.366 411.738 284.469 414.766 286.42 C 417.656 288.282 421.426 289.064 425.591 288.69 C 427.948 292.055 427.667 295.624 425.817 298.192 C 424.443 300.104 422.351 301.653 420.124 302.604 C 417.938 303.541 415.654 303.889 413.849 303.42 C 412.056 302.956 410.728 301.596 410.521 299.069 L 410.519 299.069 C 410.441 296.702 411.639 295.206 413.127 294.528 C 414.045 294.108 415.067 293.987 415.974 294.156 C 416.795 294.307 417.496 294.701 417.877 295.321 C 418.422 296.208 418.357 297.639 417.169 299.642 L 419.05 300.752 C 420.722 297.939 420.68 295.719 419.74 294.186 C 419.016 293.002 417.775 292.272 416.367 292.009 C 415.043 291.765 413.551 291.937 412.22 292.544 C 409.991 293.561 408.197 295.759 408.333 299.198 L 408.333 299.24 C 408.63 302.864 410.614 304.834 413.303 305.532 C 415.59 306.125 418.375 305.727 420.98 304.613 C 423.546 303.515 425.974 301.709 427.588 299.465 C 429.855 296.316 430.561 292.346 427.971 288.26 C 431.266 287.064 434.097 283.148 437.056 279.054 C 440.786 273.893 444.739 268.426 449.453 268.815 Z M 391.538 274.841 L 397.963 268.243 L 379.652 250.183 C 385.422 244.637 390.984 238.99 395.824 232.979 C 400.132 236.227 406.676 240.635 400.215 246.806 C 401.588 248.49 402.611 250.004 403.985 251.688 C 412.31 241.91 421.647 251.697 430.062 258.967 L 436.47 252.413 C 426.244 243.963 418.406 239.824 411.464 241.942 C 411.862 238.781 411.909 235.736 409.517 233.503 C 404.623 229.164 399.731 224.825 394.838 220.482 C 386.584 230.473 378.566 240.492 366.53 250.008 C 374.866 258.285 383.201 266.564 391.538 274.841 M 484.998 211.015 C 487.872 207.859 488.724 205.162 488.409 203.322 C 488.254 202.409 487.825 201.677 487.202 201.166 C 486.585 200.656 485.802 200.382 484.932 200.372 C 483.187 200.354 481.025 201.437 479.291 203.909 L 479.294 203.911 L 471.905 213.935 C 466.148 214.298 454.534 215.907 452.701 208.789 L 452.701 208.791 C 451.67 203.756 453.46 200.231 456.133 198.333 C 457.655 197.255 459.461 196.69 461.195 196.668 C 462.884 196.646 464.485 197.135 465.649 198.162 C 467.36 199.671 468.176 202.405 467.027 206.477 L 469.131 207.067 C 470.542 202.055 469.395 198.56 467.094 196.531 C 465.498 195.125 463.374 194.45 461.169 194.48 C 459.014 194.508 456.764 195.21 454.867 196.555 C 451.547 198.912 449.312 203.217 450.573 209.282 L 450.583 209.327 C 452.603 217.174 460.118 216.847 469.951 216.415 C 469.996 216.413 470.039 216.411 470.082 216.409 L 459.353 230.961 C 459.127 231.188 458.896 231.403 458.663 231.608 L 458.659 231.608 C 456.399 233.575 453.614 234.719 450.844 234.811 C 448.104 234.902 445.368 233.963 443.161 231.775 C 443.003 231.618 442.834 231.437 442.656 231.24 C 441.83 229.494 442.061 227.86 442.863 226.735 C 443.195 226.265 443.629 225.881 444.124 225.613 C 444.612 225.35 445.162 225.201 445.74 225.195 C 447.199 225.179 448.853 226.094 450.189 228.397 L 452.079 227.303 C 450.285 224.21 447.899 222.983 445.722 223.007 C 444.782 223.017 443.886 223.259 443.09 223.689 C 442.303 224.115 441.612 224.726 441.085 225.47 C 439.83 227.232 439.462 229.743 440.76 232.338 L 440.823 232.465 L 440.913 232.571 C 441.128 232.815 441.365 233.066 441.624 233.323 C 444.296 235.972 447.603 237.108 450.911 236.999 C 453.716 236.906 456.52 235.913 458.922 234.186 L 458.908 234.629 C 458.893 234.845 458.886 235.058 458.886 235.271 L 458.495 246.861 L 458.494 246.861 C 458.16 251.444 456.292 254.502 453.994 256.121 C 452.948 256.858 451.816 257.298 450.712 257.443 C 449.635 257.585 448.578 257.447 447.651 257.038 C 446.221 256.405 445.086 255.093 444.651 253.125 L 444.651 253.117 C 444.025 250.376 444.936 248.317 446.289 247.211 C 446.903 246.71 447.602 246.408 448.274 246.334 L 448.274 246.332 C 448.876 246.269 449.455 246.394 449.906 246.734 C 450.73 247.358 451.214 248.735 450.888 251.034 L 453.05 251.333 C 453.505 248.126 452.636 246.063 451.222 244.992 C 450.305 244.297 449.181 244.037 448.039 244.162 L 448.033 244.162 C 446.955 244.281 445.857 244.749 444.912 245.521 C 442.992 247.088 441.681 249.925 442.522 253.604 L 442.525 253.604 C 443.124 256.312 444.732 258.136 446.771 259.037 C 448.061 259.608 449.517 259.801 450.993 259.605 C 452.442 259.415 453.911 258.853 455.252 257.907 C 458.036 255.946 460.295 252.333 460.683 247.017 L 460.683 246.972 L 460.878 241.172 C 462.025 242.704 463.573 243.872 465.255 244.45 C 465.878 244.663 466.516 244.8 467.15 244.848 C 469.174 244.996 471.7 243.75 473.26 241.608 C 473.558 241.198 473.827 240.747 474.054 240.263 L 474.054 240.259 C 474.275 239.779 474.455 239.267 474.576 238.728 L 474.576 238.724 L 474.584 238.688 L 472.458 238.208 L 472.45 238.24 C 472.361 238.626 472.23 238.994 472.07 239.34 C 471.909 239.683 471.714 240.01 471.489 240.316 C 470.369 241.856 468.643 242.757 467.304 242.658 C 466.846 242.626 466.397 242.531 465.966 242.381 C 464.573 241.902 463.293 240.882 462.391 239.539 C 461.56 238.297 461.052 236.78 461.08 235.157 L 461.088 234.889 C 461.092 234.838 461.094 234.789 461.098 234.737 C 461.138 234.196 461.483 232.358 461.721 231.429 L 468.446 222.307 C 468.504 222.961 468.56 223.673 468.617 224.383 C 468.709 225.505 468.8 226.627 468.944 227.942 C 468.991 229.764 470.248 230.99 471.909 231.505 C 472.959 231.829 474.185 231.858 475.332 231.556 C 476.506 231.246 477.612 230.589 478.397 229.549 C 479.727 227.785 480.106 224.974 478.209 220.998 L 476.235 221.937 C 477.713 225.032 477.536 227.061 476.652 228.232 C 476.185 228.855 475.505 229.251 474.778 229.444 C 474.022 229.645 473.226 229.627 472.552 229.418 C 471.748 229.169 471.144 228.634 471.132 227.876 L 471.132 227.843 L 471.124 227.771 C 471.02 226.828 470.913 225.519 470.805 224.212 C 470.719 223.158 470.525 221.06 470.377 219.685 L 481.069 205.184 L 481.085 205.166 C 482.362 203.348 483.811 202.548 484.915 202.561 C 485.28 202.564 485.593 202.664 485.817 202.849 C 486.036 203.029 486.191 203.312 486.255 203.69 C 486.47 204.949 485.739 206.958 483.383 209.544 Z M 423.695 236.083 C 427.376 236.083 430.377 233.082 430.377 229.402 C 430.377 225.72 427.376 222.718 423.695 222.718 C 420.014 222.718 417.012 225.72 417.012 229.402 C 417.012 233.082 420.014 236.083 423.695 236.083 M 431.622 194.399 C 433.525 194.399 435.08 192.956 435.08 191.188 C 435.08 189.421 433.525 187.979 431.622 187.979 C 429.716 187.979 428.163 189.421 428.163 191.188 C 428.163 192.956 429.716 194.399 431.622 194.399 M 492.961 190.48 L 431.795 169.09 L 426.354 180.16 C 425.754 181.932 426.041 183.452 426.729 184.851 C 431.07 184.458 434.754 182.199 437.987 178.658 C 438.813 184.836 441.154 190.408 444.751 195.475 L 444.93 195.92 C 438.648 197.163 433.382 199.797 429.132 203.819 L 428.794 203.988 C 427.464 200.312 425.79 196.984 423.351 194.42 C 423.263 194.391 423.17 194.365 423.079 194.341 C 417.368 192.907 413.668 204.412 411.983 208.782 L 418.849 216.246 L 412.094 220.687 L 398.962 211.117 C 393.601 207.378 389.152 210.324 385.453 218.81 L 380.388 215.245 L 392.02 203.239 C 394.24 201.055 398.306 201.743 404.216 205.301 L 412.47 191.417 C 421.187 191.562 420.082 187.649 416.222 182.599 L 425.979 160.835 L 497.275 181.286 Z M 498.425 170.363 L 427.317 152.743 L 428.479 145.104 L 500.253 162.892 Z M 504.005 128.439 C 505.979 126.84 507.155 124.733 507.46 122.744 C 507.584 121.937 507.562 121.137 507.393 120.387 C 507.217 119.613 506.883 118.897 506.386 118.283 C 505.584 117.294 504.382 116.585 502.765 116.341 C 501.335 116.123 500.057 116.264 498.97 116.689 C 497.93 117.095 497.074 117.758 496.436 118.61 C 495.805 119.452 495.389 120.465 495.219 121.586 C 494.996 123.056 495.185 124.728 495.854 126.444 L 497.891 125.65 C 497.365 124.306 497.214 123.021 497.383 121.913 C 497.5 121.141 497.771 120.463 498.178 119.92 C 498.573 119.39 499.109 118.979 499.764 118.722 C 500.5 118.436 501.399 118.344 502.441 118.503 C 503.479 118.663 504.225 119.082 504.693 119.659 C 504.972 120.003 505.162 120.415 505.264 120.866 C 505.371 121.34 505.381 121.867 505.298 122.418 C 505.07 123.906 504.159 125.505 502.628 126.747 Z M 494.206 145.226 C 495.977 148.355 498.539 149.485 500.834 149.323 C 502.268 149.224 503.595 148.611 504.569 147.663 C 505.564 146.692 506.193 145.373 506.198 143.888 C 506.21 141.607 504.757 138.957 500.855 136.699 L 500.727 136.625 L 500.591 136.589 C 497.229 135.686 493.627 136.859 490.003 138.041 C 485.46 141.341 470.199 137.653 477.162 128.089 C 477.638 127.669 478.171 127.385 478.734 127.305 C 479.686 127.17 480.814 127.63 482.054 129.012 L 483.687 127.55 C 481.896 125.549 480.079 124.91 478.435 125.141 C 477.422 125.284 476.504 125.762 475.719 126.458 C 474.979 127.113 474.355 127.962 473.883 128.897 C 469.769 141.245 483.4 143.251 490.68 140.117 C 493.939 139.055 497.18 138 499.893 138.664 C 502.896 140.436 504.021 142.324 504.01 143.877 C 504.006 144.749 503.634 145.524 503.047 146.097 C 502.441 146.69 501.602 147.072 500.688 147.136 C 499.147 147.243 497.389 146.419 496.103 144.149 Z M 439.307 62.581 L 436.882 47.318 L 449.527 45.345 C 448.455 53.735 453.863 61.414 444.907 62.277 Z M 494.215 11.846 C 493.548 8.697 492.879 5.548 492.211 2.399 C 476.678 9.055 461.145 15.711 445.609 22.366 C 442.308 13.651 431.187 11.848 426.723 15.768 C 420.087 21.234 419.346 18.563 417.087 20.887 C 425.997 37.169 430.843 57.146 432.909 79.65 C 424.479 80.375 420.004 87.017 421.525 103.871 L 425.565 103.634 C 422.504 81.258 447.663 85.486 462.812 84.139 C 462.736 81.755 462.664 79.372 462.59 76.991 C 455.552 77.279 448.516 77.568 441.48 77.856 C 439.902 68.185 443.802 66.943 448.482 66.906 L 460.772 66.44 L 460.731 59.858 C 458.435 60.058 456.046 59.625 453.746 59.824 C 457.788 57.062 452.419 42.967 453.414 37.818 C 448.95 36.921 441.026 41.093 434.552 40.478 C 433.972 38.017 432.828 35.204 432.249 32.745 C 452.752 25.72 473.714 18.872 494.215 11.846 M 458.536 110.449 C 470.399 106.54 467.012 102.032 468.194 100.9 L 458.536 100.9 Z M 452.854 132.859 L 439.503 132.859 L 433.394 132.859 L 433.394 126.75 L 433.394 100.76 L 433.394 96.641 L 433.394 94.651 L 451.291 94.651 L 451.291 94.649 L 478.419 94.649 C 468.104 98.818 480.365 118.89 451.291 116.1 L 451.291 100.76 L 443.338 100.76 C 440.78 101.943 439.785 104.169 439.503 106.867 L 439.503 126.75 L 452.854 126.75 Z M 497.86 106.649 C 501.539 106.649 504.542 103.646 504.542 99.966 C 504.542 96.286 501.539 93.282 497.86 93.282 C 494.178 93.282 491.176 96.286 491.176 99.966 C 491.176 103.646 494.178 106.649 497.86 106.649 M 486.687 61.143 C 486.596 57.28 485.118 55.032 483.193 54.07 C 482.13 53.534 480.937 53.409 479.772 53.626 C 478.648 53.835 477.549 54.372 476.609 55.174 C 474.561 56.928 473.264 59.974 474.244 63.667 L 474.26 63.729 L 474.286 63.795 C 476.67 69.757 481.967 72.048 487.506 71.752 C 490.695 71.582 493.966 70.54 496.783 68.845 L 496.783 78.033 L 496.783 78.071 C 496.815 78.867 496.997 79.591 497.293 80.235 C 497.85 81.448 498.801 82.345 499.927 82.919 C 501.017 83.475 502.274 83.732 503.483 83.685 C 504.358 83.651 505.227 83.456 506.004 83.099 C 507.01 82.637 507.867 81.922 508.466 81.031 C 508.991 80.251 509.323 79.343 509.395 78.354 C 509.468 77.393 509.288 76.353 508.796 75.278 C 508.099 73.763 506.764 72.193 504.597 70.735 L 503.376 72.547 C 505.188 73.769 506.276 75.016 506.813 76.186 C 507.136 76.89 507.255 77.574 507.209 78.201 C 507.163 78.799 506.965 79.345 506.652 79.811 C 506.273 80.371 505.733 80.824 505.097 81.115 C 504.596 81.345 504.013 81.473 503.407 81.497 C 502.549 81.528 501.67 81.354 500.919 80.969 C 500.205 80.605 499.609 80.057 499.275 79.328 C 499.102 78.946 498.992 78.503 498.974 77.996 L 498.974 67.322 C 501.565 65.239 503.554 62.521 504.377 59.393 C 505.725 54.253 503.949 48.094 496.586 41.961 L 496.576 41.953 L 496.5 41.902 C 491.19 38.26 489.657 33.767 490.093 30.287 C 490.305 28.585 490.983 27.143 491.904 26.193 C 492.736 25.342 493.764 24.904 494.789 25.098 C 496.255 25.37 497.81 26.868 499.035 30.113 L 501.079 29.345 C 499.543 25.276 497.354 23.356 495.191 22.951 C 493.398 22.617 491.676 23.302 490.341 24.674 C 489.1 25.949 488.194 27.837 487.921 30.022 C 487.402 34.17 489.135 39.459 495.188 43.65 C 501.775 49.137 503.41 54.472 502.264 58.836 C 501.479 61.827 499.385 64.411 496.689 66.297 C 493.959 68.207 490.625 69.391 487.395 69.563 C 482.751 69.813 478.324 67.935 476.339 63.047 C 475.636 60.31 476.558 58.092 478.03 56.831 C 478.677 56.277 479.422 55.912 480.174 55.772 C 480.881 55.64 481.592 55.713 482.221 56.027 C 483.466 56.651 484.43 58.271 484.499 61.186 Z M 431.073 28.691 L 440.312 24.646 L 437.981 21.434 C 437.073 19.895 434.729 19.726 432.844 20.64 L 428.444 23.172 Z M 415.291 14.513 L 480.749 -21.002 L 477.764 -27.308 L 412.739 8.224 Z " fill="#231f20" fill-rule="evenodd"/>
<path transform="matrix(1,0,0,-1,158.9033,472.5)" d="M 0 0 C 2.894 5.42 5.787 10.843 8.682 16.266 C 22.875 13.763 9.931 -12.208 0 0 M -15.061 -28.222 L -5.522 -10.672 C 12.271 -18.588 -2.32 -39.655 -15.061 -28.222 M -10.379 37.83 L 31.748 13.496 C 48.387 2.985 35.724 -16.02 23.727 -16.293 C 38.381 -39.441 13.068 -58.438 -3.167 -47.818 C -16.367 -40.438 -29.566 -33.059 -42.766 -25.68 C -48.61 -22.262 -43.542 -12.788 -37.368 -17.161 L -13.812 25.418 C -12.949 27.377 -13.114 28.238 -15.479 29.982 C -20.1 33.893 -13.718 40.394 -10.379 37.83 M 69.383 -43.311 C 68.141 -39.813 66.9 -36.313 65.659 -32.813 C 64.885 -31.234 63.743 -30.358 61.933 -32.813 C 60.24 -34.903 58.546 -36.991 56.854 -39.077 C 55.765 -40.514 55.935 -41.53 57.362 -42.126 C 60.353 -43.028 63.343 -43.932 66.335 -44.837 C 68.197 -45.273 69.772 -45.395 69.383 -43.311 M 64.961 -6.091 C 60.433 -8.516 63.018 -13.513 57.306 -21.573 C 47.086 -33.07 38.561 -41.859 28.341 -53.354 C 25.503 -53.782 22.665 -54.205 19.826 -54.633 C 18.001 -57.102 19.562 -59.799 24.51 -62.721 C 29.903 -64.709 35.295 -66.695 40.689 -68.683 C 46.752 -70.089 49.651 -65.398 46.482 -61.028 C 41.037 -56.439 42.392 -52.103 47.502 -53.782 L 67.94 -59.316 C 69.773 -63.055 68.073 -64.675 65.386 -65.702 C 57.917 -67.726 60.125 -75 66.663 -76.347 L 91.785 -84.865 C 96.962 -87.192 100.953 -81.847 98.342 -78.137 C 94.064 -70.473 90.747 -63.147 90.082 -55.485 C 91.089 -51.669 88.424 7.768 64.961 -6.091 M 138.308 -24.702 L 140.698 -68.22 C 142.507 -75.125 158.978 -74.063 161.263 -64.393 C 165.593 -29.462 156.081 -21.797 138.308 -24.702 M 110.466 -15.834 C 106.135 -15.74 103.161 -25.611 114.614 -26.315 L 118.185 -75.07 C 116.198 -76.49 114.211 -77.909 112.224 -79.327 C 108.473 -81.881 110.566 -86.082 119.462 -85.716 L 148.807 -83.531 C 209.423 -77.865 193.829 -8.737 154.142 -12.858 Z M 234.218 9.351 L 190.995 -7.794 C 182.171 -11.806 185.15 -17.937 193.123 -18.013 L 211.435 -63.159 C 204.116 -68.371 208.784 -79.385 219.098 -73.793 C 232.581 -68.683 246.367 -63.422 259.851 -58.313 C 266.486 -54.633 271.606 -48.805 268.547 -34.62 C 267.603 -28.034 258.285 -27.702 257.846 -35.896 C 256.753 -40.874 256.392 -46.758 247.372 -50.677 L 236.074 -55.304 L 229.193 -41.434 C 227.341 -37.097 232.601 -31.196 237.406 -36.749 C 241.622 -42.743 243.71 -40.941 245.497 -38.025 C 247.983 -29.88 243.385 -22.755 240.358 -15.458 C 236.848 -8.703 230.084 -11.006 231.114 -16.31 C 233.908 -26.108 225.28 -26.644 223.782 -24.401 C 217.944 -15.494 216.952 -9.817 220.801 -7.368 C 229.189 -3.354 236.779 .365 243.34 -6.942 C 246.487 -10.712 253.619 -3.637 249.604 2.48 C 244.746 12.09 240.234 12.713 234.218 9.351 M 293.013 .716 C 289.34 1.267 285.669 1.817 281.992 2.369 C 280.24 2.426 278.929 1.83 280.244 -.921 C 281.292 -3.398 282.334 -5.874 283.383 -8.351 C 284.139 -9.986 285.116 -10.313 286.31 -9.336 C 288.517 -7.124 290.719 -4.906 292.924 -2.691 C 294.186 -1.253 295.033 .082 293.013 .716 M 258.084 14.318 C 258.096 9.182 263.72 9.115 268.147 .282 C 273.486 -14.144 277.233 -25.8 282.572 -40.228 C 281.612 -42.931 280.651 -45.636 279.694 -48.343 C 281.018 -51.116 284.131 -51.005 289.035 -48.014 C 293.326 -44.19 297.618 -40.364 301.908 -36.539 C 305.997 -31.851 303.225 -27.087 297.878 -27.827 C 291.266 -30.475 288.075 -27.237 291.96 -23.519 L 306.455 -8.084 C 310.618 -8.224 311.249 -10.487 310.892 -13.344 C 309.165 -20.886 316.622 -22.359 320.885 -17.221 L 340.216 .944 C 344.706 4.415 341.866 10.453 337.365 9.893 C 328.589 9.723 320.562 10.239 313.486 13.258 C 310.595 15.942 256.888 41.54 258.084 14.318 " fill="#4bb748" fill-rule="evenodd"/>
</g>
</g>
</g>
</svg>
