<?xml version="1.0" encoding="UTF-8" standalone="no"?>
<!-- Created with Inkscape (http://www.inkscape.org/) -->

<svg
   version="1.1"
   id="svg2"
   xml:space="preserve"
   width="1122.52"
   height="793.70001"
   viewBox="0 0 1122.52 793.70001"
   sodipodi:docname="rtcc.ai"
   xmlns:inkscape="http://www.inkscape.org/namespaces/inkscape"
   xmlns:sodipodi="http://sodipodi.sourceforge.net/DTD/sodipodi-0.dtd"
   xmlns="http://www.w3.org/2000/svg"
   xmlns:svg="http://www.w3.org/2000/svg"><defs
     id="defs6"><clipPath
       clipPathUnits="userSpaceOnUse"
       id="clipPath16"><path
         d="M 0,595.275 H 841.89 V 0 H 0 Z"
         id="path14" /></clipPath></defs><sodipodi:namedview
     id="namedview4"
     pagecolor="#ffffff"
     bordercolor="#666666"
     borderopacity="1.0"
     inkscape:pageshadow="2"
     inkscape:pageopacity="0.0"
     inkscape:pagecheckerboard="0" /><g
     id="g8"
     inkscape:groupmode="layer"
     inkscape:label="rtcc"
     transform="matrix(1.3333333,0,0,-1.3333333,0,793.7)"><g
       id="g10"><g
         id="g12"
         clip-path="url(#clipPath16)"><g
           id="g18"
           transform="translate(602.2939,354.0767)"><path
             d="m 0,0 c -0.066,-50.921 -41.398,-92.154 -92.326,-92.086 -50.912,0.063 -92.146,41.402 -92.083,92.321 0.066,50.925 41.402,92.151 92.32,92.091 C -41.161,92.259 0.065,50.922 0,0"
             style="fill:#ffd200;fill-opacity:1;fill-rule:evenodd;stroke:none"
             id="path20" /></g><g
           id="g22"
           transform="translate(521.8496,328.6875)"><path
             d="m 0,0 c 0.021,-0.639 0,-1.261 -0.043,-1.877 -0.562,0.192 -1.166,0.305 -1.797,0.309 -0.181,-0.002 -0.354,-0.038 -0.536,-0.054 -0.021,0.021 -0.038,0.05 -0.061,0.071 -0.286,0.436 -0.639,0.815 -1.023,1.154 0.207,0.587 0.341,1.209 0.341,1.87 0,0.429 -0.052,0.841 -0.145,1.245 0.015,0 0.03,-0.002 0.05,-0.002 C -2.893,2.714 -1.599,1.317 0,0 m 90.615,-33.963 -46.477,20.496 0.042,0.002 c -0.11,0.416 -0.146,0.793 -0.146,1.077 0.257,0.117 0.475,0.315 0.62,0.552 0.105,-0.024 0.212,-0.043 0.33,-0.043 0.768,-0.002 1.389,0.619 1.393,1.393 0.769,0 1.395,0.62 1.395,1.393 0,0.206 -0.051,0.407 -0.138,0.584 0.165,0.23 0.265,0.503 0.268,0.806 -0.003,0.633 -0.422,1.166 -1.01,1.333 0.078,0.175 0.125,0.365 0.125,0.567 0,0.774 -0.618,1.393 -1.391,1.395 -0.15,0 -0.299,-0.028 -0.439,-0.077 -0.238,0.423 -0.688,0.712 -1.206,0.714 -0.73,0.002 -1.321,-0.565 -1.381,-1.278 -0.5,-0.036 -0.921,-0.333 -1.132,-0.762 -0.053,0.006 -0.095,0.015 -0.148,0.017 -0.767,-0.002 -1.393,-0.619 -1.399,-1.395 0,-0.173 0.044,-0.343 0.095,-0.496 -0.358,-0.253 -0.6,-0.672 -0.6,-1.147 0,-0.596 0.377,-1.102 0.903,-1.298 0.077,-0.695 0.658,-1.237 1.374,-1.237 0.077,0 0.366,-0.322 0.735,-0.621 0.007,-0.245 -0.013,-0.477 -0.041,-0.707 l -5.082,2.239 c -0.19,1.777 -1.197,3.296 -2.654,4.175 1.556,0.292 2.732,1.651 2.732,3.288 1.855,0 3.356,1.498 3.359,3.356 0,0.507 -0.121,0.982 -0.319,1.412 0.389,0.548 0.626,1.217 0.626,1.938 0.005,1.529 -1.025,2.804 -2.424,3.215 0.196,0.418 0.302,0.876 0.302,1.368 0,1.853 -1.492,3.358 -3.35,3.36 -0.371,0 -0.722,-0.073 -1.054,-0.186 -0.578,1.019 -1.653,1.713 -2.911,1.717 -1.758,0.002 -3.187,-1.354 -3.333,-3.073 C 27.086,10.015 26.067,9.3 25.554,8.274 25.437,8.292 25.319,8.313 25.202,8.313 23.348,8.315 21.84,6.814 21.834,4.961 c 0,-0.427 0.096,-0.833 0.238,-1.209 -0.877,-0.6 -1.455,-1.611 -1.455,-2.757 -0.003,-1.434 0.899,-2.654 2.168,-3.133 0.191,-1.672 1.589,-2.971 3.308,-2.976 0.181,0.003 0.899,-0.77 1.779,-1.496 0,-0.151 -0.009,-0.303 -0.009,-0.447 -0.276,-0.272 -0.517,-0.566 -0.733,-0.885 H 27 c -0.729,1.75 -2.306,3.044 -4.232,3.363 -0.942,1.768 -2.782,2.98 -4.915,2.982 -1.4,0.003 -2.67,-0.528 -3.649,-1.376 -0.324,0.06 -0.652,0.1 -0.997,0.1 C 10.994,-2.866 9.1,-4.159 8.188,-6.017 7.95,-5.829 7.699,-5.662 7.437,-5.511 7.129,-4.068 7.03,-2.758 7.021,-1.732 c 1.133,0.514 2.075,1.356 2.708,2.403 0.462,-0.109 0.937,-0.187 1.43,-0.187 3.367,-0.005 6.099,2.718 6.099,6.08 3.359,-0.001 6.09,2.719 6.096,6.079 0,0.922 -0.218,1.785 -0.577,2.57 0.707,0.993 1.135,2.204 1.139,3.521 0,2.768 -1.861,5.086 -4.396,5.822 0.35,0.76 0.544,1.595 0.544,2.484 0.005,3.359 -2.717,6.088 -6.081,6.093 -0.674,0.002 -1.308,-0.133 -1.917,-0.335 -1.044,1.851 -2.998,3.11 -5.277,3.111 -3.187,0.009 -5.779,-2.452 -6.046,-5.575 -2.169,-0.172 -4.007,-1.473 -4.941,-3.327 -0.217,0.019 -0.423,0.065 -0.638,0.065 -3.365,0.002 -6.1,-2.721 -6.1,-6.08 0,-0.772 0.158,-1.508 0.419,-2.192 -1.593,-1.093 -2.638,-2.923 -2.643,-5.002 -0.005,-2.604 1.638,-4.809 3.935,-5.686 0.043,-0.363 0.121,-0.716 0.219,-1.058 -0.08,-0.01 -0.159,-0.017 -0.241,-0.024 -1.024,1.107 -2.474,1.819 -4.107,1.821 -1.511,0 -2.881,-0.607 -3.895,-1.58 -0.924,0.686 -2.064,1.105 -3.305,1.107 -2.833,10e-4 -5.152,-2.107 -5.53,-4.834 -2.563,-0.185 -4.648,-2.065 -5.107,-4.542 -2.609,-0.476 -4.591,-2.747 -4.594,-5.491 0,-0.478 0.07,-0.933 0.181,-1.371 l -3.49,0.005 2.954,23.691 -35.293,40.244 -45.09,-31.133 3.783,-12.607 -6.662,5.242 -5.278,-5.725 -1.554,9.637 -24.226,22.903 c 0,0 -29.818,-8.969 -29.821,-8.972 l -1.343,31.19 -44.999,35.406 -39.562,-42.918 1.819,-5.876 -33.41,-36.248 8.255,-25.918 52.896,-222.665 334.729,48.232 z"
             style="fill:#919396;fill-opacity:1;fill-rule:evenodd;stroke:none"
             id="path24" /></g><g
           id="g26"
           transform="translate(270.3525,371.2656)"><path
             d="m 0,0 3.939,-9.604 4.263,4.773 -4.079,9.02 z m 15.13,15.381 3.761,-7.267 4.019,4.84 -3.639,6.972 z m 7.126,7.793 3.612,-6.786 3.573,4.259 -3.07,7.068 z M 7.458,7.43 11.674,-0.25 15.93,4.604 12.274,12.288 Z M 144.313,-20 l 1.384,-9.03 4.634,3.205 -1.624,8.556 z m 28.298,18.268 -4.458,-3.039 1.69,-6.553 3.93,2.909 z m -20.382,-13.449 2.015,-7.445 4.659,3.274 -1.547,7.332 z m 8.211,5.219 1.719,-7 4.437,3.316 -1.676,6.719 z m -193.13,-8.872 3.615,-6.813 3.812,4.221 -3.129,6.811 z m -6.653,-6.457 3.354,-8.499 3.809,4.152 -3.485,7.986 z m 19.871,20.136 3.1,-6.013 3.19,3.705 -2.615,6.262 z m -6.372,-6.772 3.228,-6.443 3.596,4.214 -3.124,6.183 z M 10.962,19.092 7.42,27.587 1.954,22.597 6.096,14.074 Z m 7.981,8.653 -3.565,7.726 -4.712,-4.694 3.679,-8.048 z m -20.758,-8.473 -4.68,-4.306 3.747,-10.583 4.859,4.93 z m 28.215,16.435 -2.936,7.802 -4.68,-4.693 3.539,-7.521 z m 48.809,-46.846 1.984,-6.045 3.872,0.762 -1.223,6.193 z m 17.668,-2.971 3.636,0.687 0.529,6.763 -4.815,-1.137 z m -9.352,4.52 1.796,-5.999 3.87,0.765 -0.121,6.439 z"
             style="fill:#ffffff;fill-opacity:1;fill-rule:nonzero;stroke:none"
             id="path28" /></g><g
           id="g30"
           transform="translate(305.4932,255.5586)"><path
             d="m 0,0 h 6.065 c 7.431,0 16.841,0.246 16.841,10.032 0,8.045 -8.048,9.533 -16.841,9.533 l -6.065,0 z m -23.032,35.91 h 41.11 c 15.352,0 27.86,-6.933 27.86,-21.794 0,-11.516 -5.449,-19.19 -16.592,-21.791 v -0.25 c 7.43,-1.977 7.924,-8.542 12.258,-19.072 l 8.418,-23.524 H 26.003 l -4.954,15.604 c -4.705,14.856 -7.676,18.57 -16.221,18.57 H 0 v -34.174 h -23.032 z"
             style="fill:#ffffff;fill-opacity:1;fill-rule:nonzero;stroke:none"
             id="path32" /></g><g
           id="g34"
           transform="translate(381.4214,274.3789)"><path
             d="M 0,0 H -21.299 V 17.09 H 44.328 V 0 H 23.032 V -69.341 H 0 Z"
             style="fill:#ffffff;fill-opacity:1;fill-rule:nonzero;stroke:none"
             id="path36" /></g><g
           id="g38"
           transform="translate(504.376,207.0205)"><path
             d="m 0,0 c -6.563,-1.611 -13.869,-3.469 -25.634,-3.469 -23.029,0 -49.65,11.64 -49.65,44.332 0,30.087 21.049,45.072 49.528,45.072 8.792,0 17.334,-1.982 25.635,-4.458 L -1.979,62.779 c -7.431,4.084 -14.614,6.068 -22.539,6.068 -16.345,0 -26.996,-11.888 -26.996,-27.984 0,-16.963 12.015,-27.242 28.855,-27.242 7.552,0 15.229,1.978 21.545,4.457 z"
             style="fill:#ffffff;fill-opacity:1;fill-rule:nonzero;stroke:none"
             id="path40" /></g><g
           id="g42"
           transform="translate(586.9668,207.0205)"><path
             d="m 0,0 c -6.564,-1.611 -13.867,-3.469 -25.632,-3.469 -23.032,0 -49.652,11.64 -49.652,44.332 0,30.087 21.05,45.072 49.527,45.072 8.793,0 17.335,-1.982 25.637,-4.458 L -1.979,62.779 c -7.431,4.084 -14.614,6.068 -22.539,6.068 -16.346,0 -26.996,-11.888 -26.996,-27.984 0,-16.963 12.015,-27.242 28.854,-27.242 7.554,0 15.232,1.978 21.546,4.457 z"
             style="fill:#ffffff;fill-opacity:1;fill-rule:nonzero;stroke:none"
             id="path44" /></g><g
           id="g46"
           transform="translate(286.7446,183.7412)"><path
             d="m 0,0 h 1.014 c 1.239,0 2.809,0.04 2.809,1.674 0,1.343 -1.344,1.59 -2.809,1.59 L 0,3.264 Z m -3.843,5.991 h 6.86 c 2.562,0 4.648,-1.156 4.648,-3.636 0,-1.921 -0.909,-3.203 -2.767,-3.635 v -0.042 c 1.238,-0.33 1.321,-1.426 2.044,-3.181 L 8.346,-8.43 H 4.339 l -0.826,2.603 c -0.785,2.48 -1.282,3.099 -2.706,3.099 H 0 V -8.43 h -3.843 z"
             style="fill:#ffd200;fill-opacity:1;fill-rule:nonzero;stroke:none"
             id="path48" /></g><g
           id="g50"
           transform="translate(303.4209,181.7168)"><path
             d="M 0,0 C 0,1.239 -0.579,2.252 -2.066,2.252 -3.41,2.252 -4.049,1.239 -4.133,0 Z m -4.091,-2.107 c 0.207,-1.489 1.343,-2.067 3.161,-2.067 1.011,0 2.17,0.228 3.284,0.827 v -2.625 c -1.198,-0.475 -2.561,-0.681 -3.946,-0.681 -3.553,0 -6.261,2.087 -6.261,5.64 0,3.554 2.419,5.618 5.766,5.618 3.987,0 5.432,-2.828 5.432,-6.031 v -0.681 z"
             style="fill:#ffd200;fill-opacity:1;fill-rule:nonzero;stroke:none"
             id="path52" /></g><g
           id="g54"
           transform="translate(307.9883,178.2871)"><path
             d="M 0,0 C 0.867,-0.373 2.148,-0.744 3.492,-0.744 4.257,-0.744 5,-0.62 5,0.124 5,1.942 -0.289,0.66 -0.289,4.545 c 0,2.479 2.437,3.49 4.586,3.49 1.281,0 2.582,-0.143 3.78,-0.618 L 7.789,4.834 C 7.005,5.31 5.826,5.558 4.896,5.558 4.091,5.558 3.182,5.413 3.182,4.813 c 0,-1.672 5.537,-0.35 5.537,-4.442 0,-2.872 -2.583,-3.595 -5.021,-3.595 -1.674,0 -2.809,0.166 -3.905,0.517 z"
             style="fill:#ffd200;fill-opacity:1;fill-rule:nonzero;stroke:none"
             id="path56" /></g><g
           id="g58"
           transform="translate(323.9189,183.4727)"><path
             d="m 0,0 c -1.364,0 -2.271,-1.199 -2.271,-2.811 0,-1.569 1.031,-2.748 2.271,-2.748 1.405,0 2.252,1.179 2.252,2.894 C 2.252,-1.239 1.447,0 0,0 m -5.991,2.603 h 3.429 V 0.66 h 0.042 c 0.743,1.509 2.313,2.19 4.007,2.19 2.975,0 4.608,-2.829 4.608,-5.433 0,-3.182 -1.715,-5.826 -4.918,-5.826 -1.301,0 -2.706,0.475 -3.408,1.756 h -0.04 V -12.5 h -3.72 z"
             style="fill:#ffd200;fill-opacity:1;fill-rule:nonzero;stroke:none"
             id="path60" /></g><g
           id="g62"
           transform="translate(339.4575,180.6836)"><path
             d="m 0,0 c 0,1.612 -0.701,3.036 -2.417,3.036 -1.714,0 -2.416,-1.424 -2.416,-3.036 0,-1.591 0.702,-3.017 2.416,-3.017 C -0.701,-3.017 0,-1.591 0,0 m -8.676,0 c 0,3.574 2.706,5.639 6.259,5.639 3.554,0 6.259,-2.065 6.259,-5.639 0,-3.554 -2.705,-5.62 -6.259,-5.62 -3.553,0 -6.259,2.066 -6.259,5.62"
             style="fill:#ffd200;fill-opacity:1;fill-rule:nonzero;stroke:none"
             id="path64" /></g><g
           id="g66"
           transform="translate(344.5845,186.0752)"><path
             d="m 0,0 h 3.389 v -1.983 h 0.04 c 0.744,1.549 2.232,2.23 3.926,2.23 2.934,0 4.111,-2.064 4.111,-4.296 v -6.715 H 7.748 v 5.207 c 0,2.025 -0.703,2.706 -1.715,2.706 -1.529,0 -2.313,-1.054 -2.313,-3.366 v -4.547 H 0 Z"
             style="fill:#ffd200;fill-opacity:1;fill-rule:nonzero;stroke:none"
             id="path68" /></g><g
           id="g70"
           transform="translate(363.4297,177.9141)"><path
             d="M 0,0 C 1.238,0 2.271,1.179 2.271,2.748 2.271,4.382 1.364,5.559 0,5.559 -1.447,5.559 -2.252,4.319 -2.252,2.894 -2.252,1.179 -1.406,0 0,0 M 5.991,-2.603 H 2.562 v 1.922 H 2.52 c -0.475,-1.198 -1.983,-2.17 -3.697,-2.17 -3.203,0 -4.918,2.645 -4.918,5.827 0,2.644 1.631,5.432 4.608,5.432 1.487,0 2.748,-0.39 3.697,-1.631 h 0.042 v 6.117 h 3.739 z"
             style="fill:#ffd200;fill-opacity:1;fill-rule:nonzero;stroke:none"
             id="path72" /></g><path
           d="m 371.571,186.075 h 3.72 v -10.764 h -3.72 z m 3.72,1.757 h -3.72 v 2.727 h 3.72 z"
           style="fill:#ffd200;fill-opacity:1;fill-rule:nonzero;stroke:none"
           id="path74" /><g
           id="g76"
           transform="translate(377.5229,186.0752)"><path
             d="m 0,0 h 3.389 v -1.983 h 0.042 c 0.742,1.549 2.231,2.23 3.924,2.23 2.934,0 4.112,-2.064 4.112,-4.296 v -6.715 H 7.748 v 5.207 c 0,2.025 -0.703,2.706 -1.715,2.706 -1.529,0 -2.315,-1.054 -2.315,-3.366 v -4.547 H 0 Z"
             style="fill:#ffd200;fill-opacity:1;fill-rule:nonzero;stroke:none"
             id="path78" /></g><g
           id="g80"
           transform="translate(396.2227,178.1631)"><path
             d="M 0,0 C 1.322,0 2.376,1.115 2.376,2.769 2.376,3.967 1.674,5.31 0,5.31 -1.384,5.31 -2.107,4.091 -2.107,2.623 -2.107,0.949 -1.116,0 0,0 m 5.97,-1.592 c 0,-4.421 -2.147,-5.846 -6.487,-5.846 -1.775,0 -3.243,0.373 -4.11,0.683 l 0.186,2.932 c 1.135,-0.557 2.087,-0.888 3.635,-0.888 2.149,0 3.306,1.014 3.306,3.119 v 0.579 H 2.459 c -0.888,-1.26 -2.128,-1.839 -3.615,-1.839 -2.954,0 -4.795,2.232 -4.795,5.414 0,3.202 1.51,5.597 4.856,5.597 1.592,0 2.871,-0.865 3.657,-2.189 H 2.603 V 7.912 H 5.97 Z"
             style="fill:#ffd200;fill-opacity:1;fill-rule:nonzero;stroke:none"
             id="path82" /></g><g
           id="g84"
           transform="translate(408.9326,186.0752)"><path
             d="M 0,0 H 2.19 V 2.417 L 5.846,3.554 V 0 H 8.45 V -2.603 H 5.846 v -3.966 c 0,-1.301 0.31,-1.963 1.488,-1.963 0.372,0 0.766,0.082 1.137,0.145 l 0.123,-2.419 c -0.701,-0.082 -1.405,-0.206 -2.335,-0.206 -3.325,0 -4.131,1.468 -4.131,4.03 v 4.379 l -2.128,0 z"
             style="fill:#ffd200;fill-opacity:1;fill-rule:nonzero;stroke:none"
             id="path86" /></g><g
           id="g88"
           transform="translate(426.7021,180.6836)"><path
             d="m 0,0 c 0,1.612 -0.703,3.036 -2.418,3.036 -1.715,0 -2.417,-1.424 -2.417,-3.036 0,-1.591 0.702,-3.017 2.417,-3.017 C -0.703,-3.017 0,-1.591 0,0 m -8.679,0 c 0,3.574 2.707,5.639 6.261,5.639 3.554,0 6.261,-2.065 6.261,-5.639 0,-3.554 -2.707,-5.62 -6.261,-5.62 -3.554,0 -6.261,2.066 -6.261,5.62"
             style="fill:#ffd200;fill-opacity:1;fill-rule:nonzero;stroke:none"
             id="path90" /></g><g
           id="g92"
           transform="translate(446.0635,182.9971)"><path
             d="m 0,0 c -0.683,0.413 -1.363,0.6 -2.252,0.6 -1.611,0 -2.851,-1.117 -2.851,-2.975 0,-1.717 1.447,-2.83 3.058,-2.83 0.846,0 1.693,0.185 2.314,0.517 l 0.082,-2.77 c -0.93,-0.31 -2.044,-0.476 -3.037,-0.476 -3.553,0 -6.259,2.067 -6.259,5.621 0,3.574 2.706,5.638 6.259,5.638 1.116,0 2.107,-0.183 2.955,-0.597 z"
             style="fill:#ffd200;fill-opacity:1;fill-rule:nonzero;stroke:none"
             id="path94" /></g><path
           d="m 447.883,190.808 h 3.72 v -15.496 h -3.72 z"
           style="fill:#ffd200;fill-opacity:1;fill-rule:nonzero;stroke:none"
           id="path96" /><path
           d="m 454.27,186.075 h 3.718 v -10.764 h -3.718 z m 3.717,1.757 h -3.718 v 2.727 h 3.718 z"
           style="fill:#ffd200;fill-opacity:1;fill-rule:nonzero;stroke:none"
           id="path98" /><g
           id="g100"
           transform="translate(460.2207,186.0752)"><path
             d="m 0,0 h 3.389 v -1.983 h 0.04 c 0.744,1.549 2.231,2.23 3.925,2.23 1.53,0 2.791,-0.66 3.369,-2.064 0.867,1.446 2.293,2.064 3.821,2.064 3.099,0 3.802,-1.755 3.802,-4.669 v -6.342 h -3.719 v 5.785 c 0,1.219 -0.434,2.128 -1.487,2.128 -1.323,0 -2.108,-1.054 -2.108,-3.366 v -4.547 H 7.313 v 5.785 c 0,1.219 -0.433,2.128 -1.487,2.128 -1.322,0 -2.107,-1.054 -2.107,-3.366 v -4.547 H 0 Z"
             style="fill:#ffd200;fill-opacity:1;fill-rule:nonzero;stroke:none"
             id="path102" /></g><g
           id="g104"
           transform="translate(484.8516,177.543)"><path
             d="M 0,0 C 1.404,0 2.294,1.282 2.294,2.541 1.817,2.563 1.28,2.603 0.723,2.603 -0.538,2.603 -1.529,2.212 -1.529,1.179 -1.529,0.435 -0.867,0 0,0 M 2.562,-2.231 C 2.541,-1.653 2.478,-1.095 2.478,-0.536 H 2.438 C 1.59,-1.879 0.557,-2.479 -0.971,-2.479 -3.099,-2.479 -5,-1.426 -5,0.909 c 0,3.285 3.574,3.678 5.557,3.678 0.6,0 1.26,-0.064 1.737,-0.144 -0.023,1.466 -1.117,1.859 -2.461,1.859 -1.197,0 -2.396,-0.229 -3.429,-0.806 l -0.061,2.52 c 1.322,0.538 2.706,0.763 4.298,0.763 2.748,0 5.124,-1.175 5.124,-4.462 V 0.31 c 0,-0.846 0.04,-1.695 0.207,-2.541 z"
             style="fill:#ffd200;fill-opacity:1;fill-rule:nonzero;stroke:none"
             id="path106" /></g><g
           id="g108"
           transform="translate(491.5264,186.0752)"><path
             d="M 0,0 H 2.189 V 2.417 L 5.848,3.554 V 0 H 8.45 V -2.603 H 5.848 v -3.966 c 0,-1.301 0.309,-1.963 1.487,-1.963 0.371,0 0.764,0.082 1.135,0.145 l 0.126,-2.419 c -0.704,-0.082 -1.406,-0.206 -2.335,-0.206 -3.327,0 -4.133,1.468 -4.133,4.03 v 4.379 l -2.128,0 z"
             style="fill:#ffd200;fill-opacity:1;fill-rule:nonzero;stroke:none"
             id="path110" /></g><g
           id="g112"
           transform="translate(508.4688,181.7168)"><path
             d="M 0,0 C 0,1.239 -0.578,2.252 -2.065,2.252 -3.408,2.252 -4.05,1.239 -4.132,0 Z m -4.092,-2.107 c 0.207,-1.489 1.344,-2.067 3.161,-2.067 1.014,0 2.17,0.228 3.287,0.827 v -2.625 c -1.199,-0.475 -2.563,-0.681 -3.947,-0.681 -3.554,0 -6.259,2.087 -6.259,5.64 0,3.554 2.416,5.618 5.764,5.618 3.987,0 5.434,-2.828 5.434,-6.031 v -0.681 z"
             style="fill:#ffd200;fill-opacity:1;fill-rule:nonzero;stroke:none"
             id="path114" /></g><g
           id="g116"
           transform="translate(527.4795,182.9971)"><path
             d="m 0,0 c -0.682,0.413 -1.362,0.6 -2.251,0.6 -1.612,0 -2.851,-1.117 -2.851,-2.975 0,-1.717 1.445,-2.83 3.058,-2.83 0.846,0 1.692,0.185 2.312,0.517 l 0.084,-2.77 c -0.93,-0.31 -2.045,-0.476 -3.039,-0.476 -3.551,0 -6.258,2.067 -6.258,5.621 0,3.574 2.707,5.638 6.258,5.638 1.118,0 2.109,-0.183 2.955,-0.597 z"
             style="fill:#ffd200;fill-opacity:1;fill-rule:nonzero;stroke:none"
             id="path118" /></g><g
           id="g120"
           transform="translate(528.8662,190.8076)"><path
             d="M 0,0 H 3.718 V -6.322 H 3.76 c 0.805,1.115 1.982,1.837 3.594,1.837 2.934,0 4.113,-2.065 4.113,-4.296 v -6.715 h -3.72 v 5.207 c 0,2.024 -0.702,2.706 -1.714,2.706 -1.529,0 -2.315,-1.055 -2.315,-3.366 v -4.547 H 0 Z"
             style="fill:#ffd200;fill-opacity:1;fill-rule:nonzero;stroke:none"
             id="path122" /></g><g
           id="g124"
           transform="translate(546.6162,177.543)"><path
             d="M 0,0 C 1.404,0 2.293,1.282 2.293,2.541 1.817,2.563 1.28,2.603 0.724,2.603 -0.538,2.603 -1.53,2.212 -1.53,1.179 -1.53,0.435 -0.868,0 0,0 m 2.561,-2.231 c -0.02,0.578 -0.082,1.136 -0.082,1.695 H 2.438 c -0.848,-1.343 -1.881,-1.943 -3.41,-1.943 -2.128,0 -4.029,1.053 -4.029,3.388 0,3.285 3.574,3.678 5.558,3.678 0.599,0 1.26,-0.064 1.736,-0.144 -0.022,1.466 -1.116,1.859 -2.459,1.859 -1.198,0 -2.397,-0.229 -3.43,-0.806 l -0.062,2.52 c 1.323,0.538 2.707,0.763 4.298,0.763 2.747,0 5.124,-1.175 5.124,-4.462 V 0.31 c 0,-0.846 0.042,-1.695 0.206,-2.541 z"
             style="fill:#ffd200;fill-opacity:1;fill-rule:nonzero;stroke:none"
             id="path126" /></g><g
           id="g128"
           transform="translate(554.2412,186.0752)"><path
             d="m 0,0 h 3.389 v -1.983 h 0.042 c 0.742,1.549 2.23,2.23 3.924,2.23 2.933,0 4.112,-2.064 4.112,-4.296 v -6.715 h -3.72 v 5.207 c 0,2.025 -0.702,2.706 -1.714,2.706 -1.529,0 -2.315,-1.054 -2.315,-3.366 v -4.547 H 0 Z"
             style="fill:#ffd200;fill-opacity:1;fill-rule:nonzero;stroke:none"
             id="path130" /></g><g
           id="g132"
           transform="translate(572.9404,178.1631)"><path
             d="M 0,0 C 1.322,0 2.377,1.115 2.377,2.769 2.377,3.967 1.674,5.31 0,5.31 -1.384,5.31 -2.106,4.091 -2.106,2.623 -2.106,0.949 -1.115,0 0,0 m 5.971,-1.592 c 0,-4.421 -2.148,-5.846 -6.488,-5.846 -1.775,0 -3.243,0.373 -4.11,0.683 l 0.186,2.932 c 1.135,-0.557 2.087,-0.888 3.635,-0.888 2.15,0 3.305,1.014 3.305,3.119 v 0.579 h -0.04 c -0.888,-1.26 -2.128,-1.839 -3.615,-1.839 -2.954,0 -4.794,2.232 -4.794,5.414 0,3.202 1.509,5.597 4.855,5.597 1.592,0 2.871,-0.865 3.658,-2.189 h 0.04 v 1.942 h 3.368 z"
             style="fill:#ffd200;fill-opacity:1;fill-rule:nonzero;stroke:none"
             id="path134" /></g><g
           id="g136"
           transform="translate(588.1289,181.7168)"><path
             d="M 0,0 C 0,1.239 -0.579,2.252 -2.066,2.252 -3.41,2.252 -4.049,1.239 -4.133,0 Z m -4.091,-2.107 c 0.206,-1.489 1.343,-2.067 3.161,-2.067 1.011,0 2.17,0.228 3.284,0.827 v -2.625 c -1.198,-0.475 -2.561,-0.681 -3.946,-0.681 -3.554,0 -6.261,2.087 -6.261,5.64 0,3.554 2.418,5.618 5.765,5.618 3.988,0 5.434,-2.828 5.434,-6.031 v -0.681 z"
             style="fill:#ffd200;fill-opacity:1;fill-rule:nonzero;stroke:none"
             id="path138" /></g></g></g></g></svg>
